<svg width="317" height="124" viewBox="0 0 317 124" fill="none" xmlns="http://www.w3.org/2000/svg">
<g clip-path="url(#clip0_135_2)">
<path d="M74.3731 1.37075C76.5495 1.37075 78.7977 2.86819 80.9669 5.9573C83.1121 9.01206 85.0652 13.4665 86.7135 19.0158C90.0079 30.1067 92.0519 45.4557 92.0519 62.4288C92.0519 79.4019 90.0079 94.7509 86.7135 105.842C85.0652 111.391 83.1121 115.846 80.9669 118.9C78.7977 121.99 76.5496 123.487 74.3731 123.487C72.1965 123.487 69.9485 121.99 67.7792 118.9C65.634 115.846 63.6809 111.391 62.0326 105.842C58.7383 94.7509 56.6942 79.4019 56.6942 62.4288C56.6942 45.4557 58.7383 30.1067 62.0326 19.0158C63.6809 13.4665 65.634 9.01206 67.7792 5.9573C69.9485 2.8682 72.1965 1.37075 74.3731 1.37075Z" stroke="#F5F5F5" stroke-width="1.21923"/>
<path d="M102.415 1.37075C104.592 1.37075 106.84 2.86819 109.009 5.9573C111.155 9.01206 113.108 13.4665 114.756 19.0158C118.05 30.1067 120.094 45.4557 120.094 62.4288C120.094 79.4019 118.05 94.7509 114.756 105.842C113.108 111.391 111.155 115.846 109.009 118.9C106.84 121.99 104.592 123.487 102.415 123.487C100.239 123.487 97.9908 121.99 95.8216 118.9C93.6763 115.846 91.7233 111.391 90.075 105.842C86.7806 94.7509 84.7366 79.4019 84.7366 62.4288C84.7366 45.4557 86.7806 30.1067 90.075 19.0158C91.7233 13.4665 93.6763 9.01206 95.8216 5.9573C97.9908 2.8682 100.239 1.37075 102.415 1.37075Z" stroke="#F5F5F5" stroke-width="1.21923"/>
<path d="M130.458 1.37075C132.634 1.37075 134.882 2.86819 137.051 5.9573C139.197 9.01206 141.15 13.4665 142.799 19.0158C146.092 30.1067 148.137 45.4557 148.137 62.4288C148.137 79.4019 146.092 94.7509 142.799 105.842C141.15 111.391 139.197 115.846 137.051 118.9C134.882 121.99 132.634 123.487 130.458 123.487C128.281 123.487 126.033 121.99 123.864 118.9C121.719 115.846 119.766 111.391 118.117 105.842C114.823 94.7509 112.779 79.4019 112.779 62.4288C112.779 45.4557 114.823 30.1067 118.117 19.0158C119.766 13.4665 121.719 9.01206 123.864 5.9573C126.033 2.8682 128.281 1.37075 130.458 1.37075Z" stroke="#F5F5F5" stroke-width="1.21923"/>
<path d="M18.2885 1.37079C20.4649 1.37079 22.7131 2.86824 24.8823 5.95734C27.0275 9.0121 28.9806 13.4665 30.6289 19.016C33.9233 30.1068 35.9673 45.4557 35.9673 62.4289C35.9673 79.402 33.9233 94.7509 30.6289 105.842C28.9806 111.391 27.0275 115.846 24.8823 118.9C22.7131 121.99 20.465 123.487 18.2885 123.487C16.1119 123.487 13.8639 121.99 11.6946 118.9C9.54935 115.846 7.59631 111.391 5.94799 105.842C2.65369 94.7509 0.60962 79.402 0.609619 62.4289C0.609619 45.4557 2.65368 30.1068 5.94798 19.016C7.5963 13.4665 9.54934 9.0121 11.6946 5.95734C13.8639 2.86824 16.1119 1.37079 18.2885 1.37079Z" stroke="#F5F5F5" stroke-width="1.21923"/>
<path d="M158.5 1.37075C160.676 1.37075 162.925 2.86819 165.094 5.9573C167.239 9.01206 169.193 13.4665 170.841 19.0158C174.134 30.1067 176.179 45.4557 176.179 62.4288C176.179 79.4019 174.134 94.7509 170.841 105.842C169.193 111.391 167.239 115.846 165.094 118.9C162.925 121.99 160.676 123.487 158.5 123.487C156.324 123.487 154.075 121.99 151.906 118.9C149.761 115.846 147.807 111.391 146.159 105.842C142.866 94.7509 140.821 79.4019 140.821 62.4288C140.821 45.4557 142.866 30.1067 146.159 19.0158C147.807 13.4665 149.761 9.01206 151.906 5.9573C154.075 2.8682 156.324 1.37075 158.5 1.37075Z" stroke="#F5F5F5" stroke-width="1.21923"/>
<path d="M46.3308 1.37079C48.5072 1.37079 50.7554 2.86824 52.9246 5.95734C55.0698 9.0121 57.0229 13.4665 58.6712 19.016C61.9656 30.1068 64.0096 45.4557 64.0096 62.4289C64.0096 79.402 61.9656 94.7509 58.6712 105.842C57.0229 111.391 55.0698 115.846 52.9246 118.9C50.7554 121.99 48.5073 123.487 46.3308 123.487C44.1542 123.487 41.9062 121.99 39.7369 118.9C37.5917 115.846 35.6386 111.391 33.9903 105.842C30.696 94.7509 28.6519 79.402 28.6519 62.4289C28.6519 45.4557 30.696 30.1068 33.9903 19.016C35.6386 13.4665 37.5917 9.0121 39.7369 5.95734C41.9062 2.86824 44.1542 1.37079 46.3308 1.37079Z" stroke="#F5F5F5" stroke-width="1.21923"/>
<path d="M186.542 1.37075C188.719 1.37075 190.967 2.86819 193.136 5.9573C195.282 9.01206 197.235 13.4665 198.883 19.0158C202.176 30.1067 204.221 45.4557 204.221 62.4288C204.221 79.4019 202.176 94.7509 198.883 105.842C197.235 111.391 195.282 115.846 193.136 118.9C190.967 121.99 188.719 123.487 186.542 123.487C184.366 123.487 182.118 121.99 179.949 118.9C177.803 115.846 175.85 111.391 174.201 105.842C170.908 94.7509 168.863 79.4019 168.863 62.4288C168.863 45.4557 170.908 30.1067 174.201 19.0158C175.85 13.4665 177.803 9.01206 179.949 5.9573C182.118 2.8682 184.366 1.37075 186.542 1.37075Z" stroke="#F5F5F5" stroke-width="1.21923"/>
<path d="M298.712 1.37075C300.888 1.37075 303.136 2.86819 305.305 5.9573C307.451 9.01206 309.404 13.4665 311.053 19.0158C314.346 30.1067 316.39 45.4557 316.39 62.4288C316.39 79.4019 314.346 94.7509 311.053 105.842C309.404 111.391 307.451 115.846 305.305 118.9C303.136 121.99 300.888 123.487 298.712 123.487C296.535 123.487 294.287 121.99 292.118 118.9C289.972 115.846 288.019 111.391 286.371 105.842C283.077 94.7509 281.033 79.4019 281.033 62.4288C281.033 45.4557 283.077 30.1067 286.371 19.0158C288.019 13.4665 289.972 9.01206 292.118 5.9573C294.287 2.8682 296.535 1.37075 298.712 1.37075Z" stroke="#F5F5F5" stroke-width="1.21923"/>
<path d="M214.585 1.37075C216.761 1.37075 219.009 2.86819 221.178 5.9573C223.324 9.01206 225.277 13.4665 226.926 19.0158C230.219 30.1067 232.263 45.4557 232.263 62.4288C232.263 79.4019 230.219 94.7509 226.926 105.842C225.277 111.391 223.324 115.846 221.178 118.9C219.009 121.99 216.761 123.487 214.585 123.487C212.408 123.487 210.16 121.99 207.991 118.9C205.845 115.846 203.892 111.391 202.244 105.842C198.95 94.7509 196.906 79.4019 196.906 62.4288C196.906 45.4557 198.95 30.1067 202.244 19.0158C203.892 13.4665 205.845 9.01206 207.991 5.9573C210.16 2.8682 212.408 1.37075 214.585 1.37075Z" stroke="#F5F5F5" stroke-width="1.21923"/>
<path d="M242.627 1.37075C244.803 1.37075 247.051 2.86819 249.221 5.9573C251.366 9.01206 253.32 13.4665 254.968 19.0158C258.261 30.1067 260.306 45.4557 260.306 62.4288C260.306 79.4019 258.261 94.7509 254.968 105.842C253.32 111.391 251.366 115.846 249.221 118.9C247.051 121.99 244.803 123.487 242.627 123.487C240.451 123.487 238.202 121.99 236.033 118.9C233.887 115.846 231.934 111.391 230.286 105.842C226.993 94.7509 224.948 79.4019 224.948 62.4288C224.948 45.4557 226.993 30.1067 230.286 19.0158C231.934 13.4665 233.887 9.01206 236.033 5.9573C238.202 2.8682 240.451 1.37075 242.627 1.37075Z" stroke="#F5F5F5" stroke-width="1.21923"/>
<path d="M270.669 1.37075C272.846 1.37075 275.094 2.86819 277.263 5.9573C279.409 9.01206 281.362 13.4665 283.01 19.0158C286.303 30.1067 288.348 45.4557 288.348 62.4288C288.348 79.4019 286.303 94.7509 283.01 105.842C281.362 111.391 279.409 115.846 277.263 118.9C275.094 121.99 272.846 123.487 270.669 123.487C268.493 123.487 266.245 121.99 264.076 118.9C261.93 115.846 259.977 111.391 258.328 105.842C255.035 94.7509 252.99 79.4019 252.99 62.4288C252.99 45.4557 255.035 30.1067 258.328 19.0158C259.977 13.4665 261.93 9.01206 264.076 5.9573C266.245 2.8682 268.493 1.37075 270.669 1.37075Z" stroke="#F5F5F5" stroke-width="1.21923"/>
</g>
<defs>
<clipPath id="clip0_135_2">
<rect width="317" height="123.142" fill="white" transform="translate(0 0.857689)"/>
</clipPath>
</defs>
</svg>
